<svg version="1.1" xmlns="http://www.w3.org/2000/svg" viewBox="0 0 1004 613">
  <!-- svg-source:excalidraw -->
  <defs>
    <style>
      @font-face {
        font-family: "Virgil";
        src: url("https://excalidraw.com/FG_Virgil.woff2");
      }
      @font-face {
        font-family: "Cascadia";
        src: url("https://excalidraw.com/Cascadia.woff2");
      }
    </style>
  </defs>
  <rect x="0" y="0" width="1004" height="613" fill="#ffffff"></rect><g transform="translate(373.2638865935362 169.18840579710144) rotate(0 295.37181164159597 23.54412991346058)"><path d="M-0.3549467690289021 0.7645122058689595 C159.52261003891314 -2.0544156805284843, 319.1248120800095 -0.8579977051027641, 590.6526860613966 0.7693667180836201 M0.09088107384741306 -0.27968431152403356 C214.36582605851876 2.0381357836125225, 428.0837035535661 2.21752326959351, 590.4262073547238 -0.3842830840498209 M590.7185206957752 0.2730028051882982 C589.2158970366695 14.34345630831085, 591.0593886505344 26.137971777375785, 590.7441737600261 45.66032708952601 M590.5818237936714 -0.22315864358097315 C590.2141812330184 15.659970230283745, 591.1518576329646 28.97335022566946, 590.179978725932 47.40183633057798 M590.0635397095823 47.57407811837668 C374.77376989098406 46.96203351171081, 158.91230741491512 46.26508448274199, 0.3513072602450848 46.64101911740775 M590.5818814904088 46.85018039191539 C409.9603741023048 46.93062901651015, 229.6241087948892 47.26296221171966, 0.23783550299704076 46.84582499707515 M-0.9164091069251299 47.10425944397623 C0.7352505617751586 33.742745176312496, 2.0806533389701354 21.57465322615365, -1.3029913026839495 -0.6931718569248915 M-0.5176436891779304 47.909739519045004 C-0.20803100138622538 33.807843565771364, 0.5084444555668233 18.900541995737466, -0.6553572108969092 -0.7479272047057748" stroke="#000000" stroke-width="1" fill="none"></path></g><g transform="translate(634.3896910882781 184.5991090131851) rotate(0 39.8109833082151 10.701877233391173)"><text x="0" y="15.403754466782324" font-family="Virgil, Segoe UI Emoji" font-size="17.12300357342582px" fill="#000000" text-anchor="start" style="white-space: pre;" direction="ltr">32 bytes</text></g><g transform="translate(870.11174111625 183.7429588345122) rotate(0 35.10215732552297 10.273802144055509)"><text x="0" y="16.54760428811103" font-family="Cascadia, Segoe UI Emoji" font-size="17.123003573425823px" fill="#000000" text-anchor="start" style="white-space: pre;" direction="ltr">__m256i</text></g><g transform="translate(10 10) rotate(0 492 296.5)"><path d="M-0.6743980772793293 -0.26958835050463675 C252.3765239790082 -1.3293536692261696, 505.87457662001253 -2.546771600782871, 984.5420200698078 0.6507896907627583 M0.2879104617983103 0.12590146623551846 C278.89670217446985 1.253530320838094, 558.5612071592361 0.9447857114821673, 984.1361178997904 0.14714078269898892 M983.4509863249957 -0.6391061298549175 C983.9448258108758 212.34766833418982, 985.3144787735604 424.066816608049, 983.6634852521122 592.2966047056019 M984.0273668888956 0.22709388099610806 C985.0540567888804 178.15052415383983, 985.5235765828677 356.6662819260732, 984.0284921888262 593.1464468296617 M983.4243374936283 592.3951549299061 C606.7346295982599 593.1760676752328, 229.24102689698333 592.9081050049067, -0.007048619538545609 593.5560862548649 M984.2632806066424 593.0181632336229 C733.085594245419 592.1372967033535, 481.9707744766026 592.8315710454135, 0.23125199116766454 593.3648656543344 M0.5230724208056927 592.628824711591 C1.2908169300295413 470.4705159178935, 1.337943342421204 347.06201257463545, 0.5508041970431805 0.6693954713642598 M-0.056924068555235866 593.2182867702097 C1.0722142573110758 386.25587721141056, 1.3121648069135845 179.78918870668858, -0.048412751778960234 -0.13194112218916418" stroke="#000000" stroke-width="1" fill="none"></path></g><g transform="translate(35 294.8517162471395) rotate(0 134.01784897025163 19.14540699575022)"><path d="M0.0023158045646142667 -1.4801800703834704 C99.63936195223236 -0.9366663615393008, 200.5026920169397 0.3275301050911392, 269.60584685581523 -1.4291370883426293 M-0.1648270812254869 0.5953123382535465 C74.02405186018797 -1.350201139677774, 148.35202282569142 -1.5208400561151731, 267.80515284936206 -0.22004245730262287 M269.3054719024795 1.2589185517281294 C269.2278052220537 12.922381566911733, 267.7034807453348 24.71722084857483, 267.90821868716654 36.73977617144434 M268.0085044379803 -0.6575602879747748 C269.1145164051295 15.204688971970777, 268.7999483921767 29.727766822309395, 267.17078794795003 38.22056345145999 M267.83062927595944 37.6445974920744 C161.31847797577 37.45256432080377, 56.54927861788359 38.029533383337544, -0.5502292827430046 39.13973468598785 M268.1332786131206 38.61373504771559 C170.18012859513036 38.753053728933516, 73.68011264912882 39.14684384461314, 0.5697969757661032 38.10748480768205 M-0.24396979622542858 37.624780393837376 C1.87628340185008 28.200116629269118, 1.5675160235198493 18.86520315461785, 1.6109170336276293 0.5761302392929792 M0.6456625303253531 39.06681532662211 C0.5102845474017045 29.0687567373029, 0.785234127832689 20.768941289158004, 0.8050144454464316 0.8522961447015405" stroke="#000000" stroke-width="1" fill="none"></path></g><g transform="translate(60.63519544202063 298.2665558305699) rotate(0 102.83818614860127 13.128279082800162)"><text x="102.83818614860125" y="21.256558165600325" font-family="Cascadia, Segoe UI Emoji" font-size="21.88046513800027px" fill="#000000" text-anchor="middle" style="white-space: pre;" direction="ltr">_mm256_add_epi8 </text></g><g transform="translate(35 335.5589408303366) rotate(0 134.01784897025163 19.14540699575022)"><path d="M-0.3341707843026047 0.26267051011571735 C99.47726084403028 -1.8440434707816837, 200.23777501624988 -2.389358301537017, 267.9273922450718 1.1070878023912598 M-0.7206765070785747 0.7351069093512677 C89.89368386093247 0.615058557061962, 179.3808147047735 0.6765514863111731, 268.44144425922383 0.13529400459599028 M269.4437729173797 1.1872087996453047 C268.1713141978469 14.993252966642007, 268.8306101740089 30.546762267305702, 268.9997248107093 36.83186570525019 M268.7333555098149 0.628528238274157 C267.57741152261303 9.15103013038468, 267.3381780586104 18.89057399179452, 267.0767207916352 37.50486097734271 M267.84861982405897 37.690747868303816 C206.3437152837914 36.21152955548678, 148.2525562757933 37.68532535447152, -0.7970869075314948 38.069479215884414 M268.47745449342517 38.35178506290742 C174.72294591710872 37.08518101911598, 82.09852187347624 36.196625232390716, 0.5520768977158201 38.53204059843916 M-1.9985139351338148 40.024651147125645 C-1.7428647981430059 28.336792108879166, -1.5860293017173772 16.25320972773718, 0.4055252689868212 -0.8897407371550798 M-0.46388657484203577 38.02195979159175 C0.30598054587435597 27.720416762175613, 0.5641015893180358 17.286611502840046, 0.22505785431712866 -0.23231425788253546" stroke="#000000" stroke-width="1" fill="none"></path></g><g transform="translate(54.82784383318517 338.9737804137667) rotate(0 109.94668192219672 13.011441647597252)"><text x="109.94668192219675" y="21.022883295194504" font-family="Cascadia, Segoe UI Emoji" font-size="21.880465138000265px" fill="#000000" text-anchor="middle" style="white-space: pre;" direction="ltr">_mm256_add_epi16 </text></g><g transform="translate(35 376.3591042824456) rotate(0 134.01784897025163 19.145406995750193)"><path d="M1.439519898593038 1.2858282321255494 C88.47243796578394 -0.841932328385419, 174.30034290453804 -1.1167024716297673, 269.4803141061825 -1.269046433499665 M-0.5157350121579086 -0.03784888126827709 C81.44049595410765 -0.8108747199628117, 163.86311724052655 -0.9174799811773147, 267.6640595391296 0.7791538171757283 M268.2889893704551 -1.3693847972899675 C266.42376047787224 9.694225109162016, 269.33965778765236 21.49876938756224, 269.9370108896392 36.5681817305073 M267.647341388044 -0.3591437628492713 C268.1773874492473 9.608410092115522, 267.87819743464655 18.631720515989006, 267.6340792055699 37.75286001961528 M267.609044918292 38.92661047580717 C174.7538194143687 36.22759519985321, 83.57303765055077 37.40572283651089, -0.6848806565207056 39.61509449434814 M268.081438450029 37.536496232225446 C167.45380893625457 40.18059683350735, 65.53252825646148 39.64440355710642, -0.3374903035304652 38.777679982805765 M-1.0073967557400465 38.242017663715764 C0.36243159815321163 25.177972284860026, -0.6390485639904957 13.74682905139003, 0.3689610976725817 -1.8788542468100786 M-0.8453547218814492 38.173034052065 C0.9643047639611249 24.066272471029734, -0.4162050595995898 8.492135134684407, 0.1884392937645316 0.15314930770546198" stroke="#000000" stroke-width="1" fill="none"></path></g><g transform="translate(57.43013216270424 378.4727997011149) rotate(0 109.94668192219672 13.011441647597223)"><text x="109.94668192219675" y="21.022883295194504" font-family="Cascadia, Segoe UI Emoji" font-size="21.880465138000265px" fill="#000000" text-anchor="middle" style="white-space: pre;" direction="ltr">_mm256_add_epi32 </text></g><g transform="translate(35 417.0663288656424) rotate(0 134.01784897025163 19.145406995750193)"><path d="M1.3834308615344781 -0.3800601872914923 C86.40499999844221 -2.3780696686827163, 174.00995877048535 -2.9922857716465403, 268.13035111342356 0.5925609397465905 M-0.582934582833829 -0.004990052122956303 C90.47249382521926 -0.010146800267360437, 180.94083691577762 0.8806023302458271, 267.8381366929616 -0.07885577887756619 M266.46214795648035 -0.8312787730246782 C269.4265389414101 14.669178773398507, 269.98550456478887 26.720202039426184, 266.85382754146036 40.224781788586064 M267.8071214433285 0.38390487525612116 C267.3592265436018 8.91212181360814, 267.4853743204439 16.920869490790725, 268.459521072683 38.65722743671237 M266.5245017002307 38.03353070361403 C209.66326014244848 40.063739112368104, 152.44853312432997 40.467175266444535, 1.2028380237373337 38.879022187216954 M268.3587317379906 38.4499684100075 C164.9295056620802 35.89193426284473, 62.87247124126632 36.75583911204392, 0.3071021551680305 38.681174520496185 M0.5524615067988634 38.16020867943613 C-0.2561484463964283 28.36085333893898, 0.5618313066209972 13.711062741483826, 1.82665223069489 -1.6701721269637346 M0.64454351272434 39.05071670811473 C-0.4122731067123833 28.656164181664163, 0.5121324978885231 18.834244444825416, 0.6702322503551841 0.7809568950906396" stroke="#000000" stroke-width="1" fill="none"></path></g><g transform="translate(143.95621911922558 420.4811684490726) rotate(0 19.517162471395864 13.01144164759728)"><text x="19.517162471395867" y="21.022883295194504" font-family="Cascadia, Segoe UI Emoji" font-size="21.88046513800027px" fill="#000000" text-anchor="middle" style="white-space: pre;" direction="ltr">...</text></g><g transform="translate(35 252.28571428571433) rotate(0 134.01784897025163 19.14540699575022)"><path d="M-1.469624330894626 -0.8716415147971411 C101.9199500663606 0.6371424091789905, 204.7938391133795 -0.13816873064623728, 266.5140557351769 -1.0883192485313626 M-0.08382292921634014 -0.08974062923140985 C69.37485102664574 1.5025923631067482, 137.23167242183115 1.3504926706201208, 267.5157930191267 0.038920482290540785 M268.7231994585591 -1.6142219286412 C268.07454562258863 14.059569302370805, 269.5384729511752 28.712732557918944, 268.1238315419751 36.58789063587634 M267.06866518105295 0.36166857089847326 C267.80003557658176 8.20770126238654, 268.19026572561245 17.022833952348726, 268.3457704230669 37.79961981687544 M267.86058621031003 39.549402366972075 C197.74839780824223 36.596227288038136, 131.34633272716454 36.91367178213678, -1.341219038374851 37.48291015733427 M267.95241084110023 38.89580711896925 C188.7850292792489 38.0803895585489, 110.5862209828341 39.00961796459417, 0.32450271292870764 38.56449680362585 M0.8447675388306379 40.06468088522403 C-1.902267747364486 27.175664843883435, 0.48971820548967043 16.809599928641475, 0.4866067450493574 0.994190277531743 M0.7204332062974572 38.3221151760578 C0.9353493348427298 29.190579210059916, 0.25946887291150106 21.036627129254903, 0.5394409904256463 -0.6439511636272073" stroke="#000000" stroke-width="1" fill="none"></path></g><g transform="translate(153.06422827254426 255.70055386914407) rotate(0 19.517162471395864 13.011441647597252)"><text x="19.517162471395867" y="21.022883295194504" font-family="Cascadia, Segoe UI Emoji" font-size="21.88046513800027px" fill="#000000" text-anchor="middle" style="white-space: pre;" direction="ltr">...</text></g><g transform="translate(334 55.5) rotate(0 160.5 22.5)"><text x="0" y="32" font-family="Virgil, Segoe UI Emoji" font-size="36px" fill="#000000" text-anchor="start" style="white-space: pre;" direction="ltr">Programming model</text></g><g><g stroke-opacity="0.2" fill-opacity="0.2" transform="translate(377 385) rotate(0 -0.835721865622304 -84.55809830911457)"><path d="M-0.8233009289950133 0.04085648171603684 C-1.4390633733322225 -28.06142745303611, -2.5022899976621074 -140.8071438142409, -2.616771085187793 -169.1570530999452 M0.9453273539431395 -0.9832978107221425 C0.6332683375167352 -28.847413063018273, 0.2653888846126698 -139.64981752849496, -0.22862136853858805 -167.70208072619513" stroke="#000000" stroke-width="1" fill="none"></path></g><g stroke-opacity="0.2" fill-opacity="0.2" transform="translate(377 385) rotate(0 -0.835721865622304 -84.55809830911457)"><path d="M10.369271383109051 -140.6386932802246 C6.061923065416736 -149.8171111163213, 0.45465203873848203 -159.6565334345241, -2.098006430324167 -168.7883981778659 M11.066017237911481 -140.0195361121417 C7.03372833989145 -145.3572490644497, 6.030388999409831 -152.2745157084371, -0.1935858039744196 -168.50034364921973" stroke="#000000" stroke-width="1" fill="none"></path></g><g stroke-opacity="0.2" fill-opacity="0.2" transform="translate(377 385) rotate(0 -0.835721865622304 -84.55809830911457)"><path d="M-10.150998328183384 -140.44239411656372 C-6.458308559186733 -149.55654638757994, -4.066430324598885 -159.47248945000672, -2.098006430324167 -168.7883981778659 M-9.454252473380954 -139.82323694848083 C-9.002847077581691 -145.02083943303023, -5.522209531357366 -151.98100029454588, -0.1935858039744196 -168.50034364921973" stroke="#000000" stroke-width="1" fill="none"></path></g></g><g><g stroke-opacity="0.2" fill-opacity="0.2" transform="translate(963 386) rotate(0 -0.6404746971837767 -84.16558584459128)"><path d="M-0.7168921899050473 0.49710109345614906 C-1.081133332972725 -27.62044925975303, -1.3933513513455789 -140.42974746910232, -1.6331177782267332 -168.82827278263866 M1.1076006810553372 -0.2875247778184713 C0.569111649064968 -28.17492131826158, -1.7034796797546248 -139.07428810215868, -2.3885500754229723 -167.2006907423027" stroke="#000000" stroke-width="1" fill="none"></path></g><g stroke-opacity="0.2" fill-opacity="0.2" transform="translate(963 386) rotate(0 -0.6404746971837767 -84.16558584459128)"><path d="M9.321623016271321 -138.6323029748772 C5.042625557407119 -149.2417928979589, -0.4990277888256873 -158.5324618215732, -2.8577493137679992 -167.91712489509956 M8.670968324999837 -138.38490534067645 C4.902960985927333 -148.21814225147514, 1.347322933394759 -159.89761788347576, -2.7309164588339625 -167.56838437421248" stroke="#000000" stroke-width="1" fill="none"></path></g><g stroke-opacity="0.2" fill-opacity="0.2" transform="translate(963 386) rotate(0 -0.6404746971837767 -84.16558584459128)"><path d="M-11.194564553664407 -138.17837568878994 C-8.373933326277964 -148.8223711124346, -6.816423150755945 -158.27011132524115, -2.8577493137679992 -167.91712489509956 M-11.84521924493589 -137.9309780545892 C-8.42853862879243 -147.73461657078198, -4.796319756709891 -159.5731258622016, -2.7309164588339625 -167.56838437421248" stroke="#000000" stroke-width="1" fill="none"></path></g></g><g><g stroke-opacity="0.2" fill-opacity="0.2" transform="translate(378 382) rotate(0 113.79266405645768 0.4478720389120099)"><path d="M0.8130183387547729 0.40823003165423866 C38.43045376353589 0.1873538982123136, 188.08625862117248 -0.24142609722912306, 225.47493389885886 -0.14336264021694656 M-0.21928576273843636 -0.4230531470663845 C37.806512828494135 0.05447849763557322, 189.85407981460304 1.3854019899480048, 227.80461387565373 1.318797224890441" stroke="#000000" stroke-width="1" fill="none"></path></g></g><g><g stroke-opacity="0.2" fill-opacity="0.2" transform="translate(745.7532913945615 381.00000000000006) rotate(0 107.75579828884452 0.05402130916715464)"><path d="M-1.1233543027192354 0.1644534397870303 C34.596234334260224 -0.017633111402392293, 178.40416159555318 -0.5415319871157408, 214.37870056517423 -0.41611159555613997 M0.4877459590137003 -0.7948124496638775 C36.57801033861935 -0.8681266920268537, 181.10229254938662 0.9277405078709126, 216.6349508804083 0.9028550679981708" stroke="#000000" stroke-width="1" fill="none"></path></g></g><g stroke-opacity="0.2" fill-opacity="0.2" transform="translate(654 367) rotate(0 23.5 12.5)"><text x="0" y="18" font-family="Virgil, Segoe UI Emoji" font-size="20px" fill="#000000" text-anchor="start" style="white-space: pre;" direction="ltr">8 int</text></g><g><g stroke-opacity="0.2" fill-opacity="0.2" transform="translate(377.5000000000001 322.5) rotate(0 115.29922893443148 0.22564476616682327)"><path d="M-0.05581226237118253 1.086283080652356 C38.742581361473235 1.044265728071332, 193.4003160488637 -0.647175033017993, 232.14271029831846 -0.6349935483187437 M-1.5442524294555189 0.6109777526557445 C37.22021569685701 0.751269038170576, 192.64655879937428 0.766634862869978, 231.59922257388016 0.5690600900352001" stroke="#000000" stroke-width="1" fill="none"></path></g></g><g><g stroke-opacity="0.2" fill-opacity="0.2" transform="translate(743.5740886659364 321.50000000000006) rotate(0 109.43347183895287 0.2345793718379241)"><path d="M1.086283080652356 0.7705861698836087 C37.1985842837486 0.9509597312659024, 180.12441774536833 1.0139811884611842, 216.29091778574485 1.0264291059225796 M0.1974429686553778 0.12953996373340493 C36.73966377283442 -0.0010226069577037589, 182.38103198408126 -0.3601018993742764, 218.6695007092503 -0.5572703622467816" stroke="#000000" stroke-width="1" fill="none"></path></g></g><g stroke-opacity="0.2" fill-opacity="0.2" transform="translate(638.5000000000001 309.5) rotate(0 37.5 12.5)"><text x="0" y="18" font-family="Virgil, Segoe UI Emoji" font-size="20px" fill="#000000" text-anchor="start" style="white-space: pre;" direction="ltr">16 short</text></g><g><g stroke-opacity="0.2" fill-opacity="0.2" transform="translate(377.4999999999998 274.5) rotate(0 119.22163068220954 -0.21882796673565963)"><path d="M0.7710725437849759 -1.1572389554232358 C40.195015089639156 -1.5281507324427366, 197.25412644956575 -1.169866533204913, 236.58240897649904 -1.1455516409128903 M-0.28325310006737703 0.8496066476404667 C39.49463570004019 1.0983339358866215, 198.82091249909564 -0.030469674915075268, 238.72651446448643 -0.2095410011708736" stroke="#000000" stroke-width="1" fill="none"></path></g></g><g><g stroke-opacity="0.2" fill-opacity="0.2" transform="translate(739.2194067418582 273.50000000000006) rotate(0 110.5441712933499 -0.11335132601448095)"><path d="M-1.1572389554232358 -1.081617235019803 C35.35194814391435 -1.3640057433396577, 183.23062784858053 -1.0274243343621492, 220.13504161722963 -0.9232585061341524 M0.4360718636401 0.9649297712557017 C37.20250899123029 0.7386550442688166, 185.2128290496953 0.18675467832013956, 222.24558154212315 0.12945602936670175" stroke="#000000" stroke-width="1" fill="none"></path></g></g><g stroke-opacity="0.2" fill-opacity="0.2" transform="translate(638.5000000000002 261.5) rotate(0 41 12.5)"><text x="0" y="18" font-family="Virgil, Segoe UI Emoji" font-size="20px" fill="#000000" text-anchor="start" style="white-space: pre;" direction="ltr">32 char</text></g><g transform="translate(55 215.37209302325584) rotate(0 110.24999999999989 10.5)"><text x="0" y="16.999999999999975" font-family="Cascadia, Segoe UI Emoji" font-size="17.093023255813918px" fill="#000000" text-anchor="start" style="white-space: pre;" direction="ltr">#include &lt;immintrin.h&gt;</text></g></svg>